<svg width="194" height="141" viewBox="0 0 194 141" fill="none" xmlns="http://www.w3.org/2000/svg">
<rect width="194" height="141" rx="20" fill="url(#paint0_linear_2_5)"/>
<path d="M40.968 95.664C38.1093 95.664 36.0827 94.8533 34.888 93.232C33.736 91.568 33.16 89.072 33.16 85.744C33.16 83.6107 33.5013 80.4107 34.184 76.144C34.9093 71.8347 35.912 66.1387 37.192 59.056L33.8 52.208C35.8053 50.928 37.9387 49.84 40.2 48.944C42.4613 48.0053 44.7227 47.536 46.984 47.536C48.9893 47.536 50.312 48.1333 50.952 49.328C51.592 50.5227 51.912 51.9307 51.912 53.552C51.912 54.2347 51.784 55.344 51.528 56.88C51.3147 58.3733 51.016 60.1227 50.632 62.128C50.248 64.0907 49.8427 66.16 49.416 68.336C49.032 70.4693 48.648 72.56 48.264 74.608C47.88 76.6133 47.56 78.4053 47.304 79.984C47.0907 81.52 46.984 82.6933 46.984 83.504C46.984 85.68 47.1333 87.5147 47.432 89.008C47.7733 90.5013 48.264 91.76 48.904 92.784C46.344 94.704 43.6987 95.664 40.968 95.664ZM65.4605 95.664C62.6018 95.664 60.5752 94.8533 59.3805 93.232C58.2285 91.568 57.6525 89.072 57.6525 85.744C57.6525 83.6107 57.9938 80.4107 58.6765 76.144C59.4018 71.8347 60.4045 66.1387 61.6845 59.056L58.2925 52.208C60.2978 50.928 62.4312 49.84 64.6925 48.944C66.9538 48.0053 69.2152 47.536 71.4765 47.536C73.5245 47.536 75.3165 47.856 76.8525 48.496C78.4312 49.0933 79.7965 50.2667 80.9485 52.016C82.1005 53.7227 83.0605 56.24 83.8285 59.568C84.6392 62.8533 85.3005 67.184 85.8125 72.56H86.5805C87.6045 69.616 88.8845 66.672 90.4205 63.728C91.9565 60.784 93.7912 58.096 95.9245 55.664C98.0578 53.232 100.533 51.2907 103.349 49.84C106.207 48.3467 109.45 47.6 113.077 47.6C115.082 47.6 116.405 48.1973 117.045 49.392C117.685 50.544 118.005 51.9307 118.005 53.552C118.005 54.2347 117.877 55.344 117.621 56.88C117.407 58.3733 117.109 60.1227 116.725 62.128C116.341 64.0907 115.935 66.16 115.509 68.336C115.125 70.4693 114.741 72.56 114.357 74.608C113.973 76.6133 113.653 78.4053 113.397 79.984C113.183 81.52 113.077 82.6933 113.077 83.504C113.077 85.68 113.226 87.5147 113.525 89.008C113.866 90.5013 114.357 91.76 114.997 92.784C112.437 94.704 109.791 95.664 107.061 95.664C104.202 95.664 102.175 94.8533 100.981 93.232C99.8285 91.568 99.2525 89.072 99.2525 85.744C99.2525 83.9093 99.5085 81.2853 100.021 77.872C100.575 74.4587 101.322 70.064 102.261 64.688H101.237C99.4018 67.12 97.8018 69.8507 96.4365 72.88C95.0712 75.8667 93.9832 78.8533 93.1725 81.84C92.4045 84.784 91.8925 87.408 91.6365 89.712C90.5698 90.6933 89.3965 91.44 88.1165 91.952C86.8792 92.4213 85.6418 92.656 84.4045 92.656C83.3805 92.656 82.4205 92.272 81.5245 91.504C80.6285 90.6933 79.7965 89.2853 79.0285 87.28C78.2605 85.2747 77.5778 82.4587 76.9805 78.832C76.4258 75.1627 75.9778 70.448 75.6365 64.688H74.6125C74.0578 67.12 73.5458 69.616 73.0765 72.176C72.6072 74.6933 72.2232 76.976 71.9245 79.024C71.6258 81.072 71.4765 82.5653 71.4765 83.504C71.4765 85.68 71.6258 87.5147 71.9245 89.008C72.2658 90.5013 72.7565 91.76 73.3965 92.784C70.8365 94.704 68.1912 95.664 65.4605 95.664ZM141.245 95.6C137.405 95.6 134.248 95.3227 131.773 94.768C129.298 94.256 127.378 93.5307 126.013 92.592C124.648 91.6533 123.688 90.5867 123.133 89.392C122.621 88.1547 122.365 86.8533 122.365 85.488C122.365 84.208 122.557 82.928 122.941 81.648C123.368 80.368 124.093 79.0453 125.117 77.68C125.714 78.9173 126.696 80.112 128.061 81.264C129.426 82.416 130.962 83.3547 132.669 84.08C134.418 84.8053 136.125 85.168 137.789 85.168C140.008 85.168 141.842 84.8267 143.293 84.144C144.786 83.4187 145.853 82.3093 146.493 80.816C139.24 79.8347 133.8 77.8293 130.173 74.8C126.546 71.728 124.733 68.1227 124.733 63.984C124.733 61.552 125.224 59.4187 126.205 57.584C127.229 55.7493 128.573 54.2133 130.237 52.976C131.901 51.696 133.714 50.672 135.677 49.904C137.64 49.0933 139.581 48.5173 141.501 48.176C143.421 47.792 145.128 47.6 146.621 47.6C152.04 47.6 156.2 48.24 159.101 49.52C162.045 50.7573 163.517 52.9547 163.517 56.112C163.517 57.9467 163.09 59.4827 162.237 60.72C161.426 61.9573 160.338 62.896 158.973 63.536C157.65 64.1333 156.2 64.432 154.621 64.432C152.744 64.432 150.909 63.8987 149.117 62.832C147.325 61.7227 146.066 60.1867 145.341 58.224C143.848 58.224 142.376 58.736 140.925 59.76C139.474 60.7413 138.536 62.1067 138.109 63.856C143.784 65.2213 148.349 66.736 151.805 68.4C155.304 70.064 157.842 71.9413 159.421 74.032C161 76.1227 161.789 78.512 161.789 81.2C161.789 84.3147 160.872 86.9387 159.037 89.072C157.202 91.2053 154.728 92.8267 151.613 93.936C148.541 95.0453 145.085 95.6 141.245 95.6Z" fill="white"/>
<defs>
<linearGradient id="paint0_linear_2_5" x1="4.5" y1="6.5" x2="251.5" y2="185" gradientUnits="userSpaceOnUse">
<stop stop-color="#0D9488"/>
<stop offset="1" stop-color="#042E2A"/>
</linearGradient>
</defs>
</svg>
